<svg width="24" height="24" viewBox="0 0 24 24" fill="none" xmlns="http://www.w3.org/2000/svg">
    <path d="M12 24C18.6274 24 24 18.6274 24 12C24 5.37258 18.6274 0 12 0C5.37258 0 0 5.37258 0 12C0 18.6274 5.37258 24 12 24Z" fill="#FF0420" />
    <path d="M8.70333 15.36C7.97954 15.36 7.38655 15.1858 6.92426 14.8373C6.46812 14.4827 6.24002 13.9787 6.24002 13.3253C6.24002 13.1885 6.25524 13.0205 6.28562 12.8213C6.36472 12.3734 6.47724 11.8351 6.6232 11.2067C7.03677 9.49557 8.10424 8.64001 9.82552 8.64001C10.2939 8.64001 10.7135 8.72089 11.0845 8.8827C11.4556 9.03822 11.7475 9.27467 11.9604 9.592C12.1732 9.90314 12.2797 10.2765 12.2797 10.712C12.2797 10.8427 12.2645 11.0076 12.2341 11.2067C12.1429 11.7605 12.0334 12.2987 11.9056 12.8213C11.6928 13.6738 11.3248 14.3116 10.8017 14.7347C10.2786 15.1516 9.57919 15.36 8.70333 15.36ZM8.83106 14.016C9.17167 14.016 9.46058 13.9133 9.69779 13.708C9.94106 13.5027 10.1144 13.1885 10.2178 12.7653C10.3577 12.1805 10.4642 11.6703 10.5371 11.2347C10.5615 11.104 10.5736 10.9702 10.5736 10.8333C10.5736 10.2671 10.2847 9.98402 9.70691 9.98402C9.36631 9.98402 9.07437 10.0867 8.83106 10.292C8.59384 10.4973 8.42354 10.8116 8.32015 11.2347C8.21066 11.6516 8.10117 12.1618 7.99173 12.7653C7.9674 12.8898 7.9552 13.0205 7.9552 13.1573C7.9552 13.7298 8.24714 14.016 8.83106 14.016Z" fill="white" />
    <path d="M12.6986 15.2667C12.6317 15.2667 12.58 15.2449 12.5434 15.2013C12.513 15.1515 12.5039 15.0955 12.5161 15.0333L13.7751 8.96665C13.7873 8.8982 13.8207 8.84219 13.8755 8.79865C13.9302 8.75507 13.988 8.73328 14.0488 8.73328H16.4756C17.1508 8.73328 17.6921 8.87641 18.0996 9.16264C18.5132 9.44886 18.72 9.86262 18.72 10.404C18.72 10.5595 18.7017 10.7213 18.6653 10.8893C18.5132 11.6049 18.206 12.1337 17.7437 12.476C17.2876 12.8182 16.6611 12.9893 15.8644 12.9893H14.6327L14.213 15.0333C14.2009 15.1017 14.1674 15.1577 14.1126 15.2013C14.0579 15.2449 14.0001 15.2667 13.9393 15.2667H12.6986ZM15.9282 11.7013C16.1837 11.7013 16.4057 11.6297 16.5942 11.4867C16.7888 11.3435 16.9166 11.1382 16.9774 10.8706C16.9957 10.7649 17.0048 10.6715 17.0048 10.5906C17.0048 10.4102 16.9531 10.2733 16.8497 10.1799C16.7463 10.0804 16.5699 10.0306 16.3205 10.0306H15.2257L14.879 11.7013H15.9282Z" fill="white" />
</svg>
    