<svg width="46" height="32" viewBox="0 0 46 32" fill="none" xmlns="http://www.w3.org/2000/svg">
<path d="M11.1142 7.4559C10.7926 7.09331 10.3966 6.91159 9.92538 6.91159H0.28877C0.203176 6.91159 0.133145 6.88489 0.080406 6.83149C0.026802 6.77895 0 6.71953 0 6.65579V0.255793C0 0.19206 0.026802 0.133495 0.080406 0.0800969C0.133145 0.026699 0.203176 0 0.28877 0H10.4718C13.0413 0 15.2581 1.03523 17.1213 3.10397L19.5949 6.07961L14.7765 11.8716L11.1142 7.4559ZM28.9107 3.0721C30.7739 1.02403 33.001 0 35.5922 0H45.7432C45.8288 0 45.8928 0.0215314 45.936 0.063733C45.9784 0.106796 46 0.170529 46 0.255793V6.65579C46 6.71953 45.9784 6.77895 45.936 6.83149C45.8928 6.88489 45.8288 6.91159 45.7432 6.91159H36.1066C35.6354 6.91159 35.2394 7.09331 34.9178 7.4559L27.8187 15.9677L34.9498 24.5432C35.2714 24.8852 35.6562 25.0557 36.1066 25.0557H45.7432C45.8288 25.0557 45.8928 25.0824 45.936 25.1358C45.9784 25.1892 46 25.2589 46 25.3433V31.7433C46 31.8071 45.9784 31.8665 45.936 31.919C45.8928 31.9724 45.8288 31.9991 45.7432 31.9991H35.5922C33.001 31.9991 30.7843 30.9648 28.9427 28.8952L23.0324 21.7915L17.1213 28.8952C15.2581 30.9648 13.031 31.9991 10.4398 31.9991H0.28877C0.203176 31.9991 0.138333 31.9724 0.0959684 31.919C0.0527394 31.8656 0.0319895 31.7967 0.0319895 31.7106V25.3106C0.0319895 25.2469 0.0527394 25.1883 0.0959684 25.1349C0.138333 25.0815 0.203176 25.0548 0.28877 25.0548H9.92538C10.375 25.0548 10.7709 24.874 11.1142 24.5105L18.0844 16.127L28.9107 3.0721Z" fill="#00D1FF"/>
</svg>
