<svg width="46" height="32" viewBox="0 0 46 32" fill="none" xmlns="http://www.w3.org/2000/svg">
    <path d="M11.1142 24.5441C10.7926 24.9067 10.3966 25.0884 9.92538 25.0884H0.28877C0.203176 25.0884 0.133145 25.1151 0.080406 25.1685C0.026802 25.221 0 25.2805 0 25.3442V31.7442C0 31.8079 0.026802 31.8665 0.080406 31.9199C0.133145 31.9733 0.203176 32 0.28877 32H10.4718C13.0413 32 15.2581 30.9648 17.1213 28.896L19.5949 25.9204L14.7765 20.1284L11.1142 24.5441ZM28.9107 28.9279C30.7739 30.976 33.001 32 35.5922 32H45.7432C45.8288 32 45.8928 31.9785 45.936 31.9363C45.9784 31.8932 46 31.8295 46 31.7442V25.3442C46 25.2805 45.9784 25.221 45.936 25.1685C45.8928 25.1151 45.8288 25.0884 45.7432 25.0884H36.1066C35.6354 25.0884 35.2394 24.9067 34.9178 24.5441L27.8187 16.0323L34.9498 7.45676C35.2714 7.11484 35.6562 6.94431 36.1066 6.94431H45.7432C45.8288 6.94431 45.8928 6.91762 45.936 6.86422C45.9784 6.81082 46 6.74106 46 6.65665V0.256655C46 0.192923 45.9784 0.133497 45.936 0.0809612C45.8928 0.0275631 45.8288 0.000862122 45.7432 0.000862122H35.5922C33.001 0.000862122 30.7843 1.03523 28.9427 3.10483L23.0324 10.2085L17.1213 3.10483C15.2581 1.03523 13.031 0.000862122 10.4398 0.000862122H0.28877C0.203176 0.000862122 0.138333 0.0275631 0.0959684 0.0809612C0.0527394 0.134359 0.0319895 0.203257 0.0319895 0.289383V6.68938C0.0319895 6.75312 0.0527394 6.81168 0.0959684 6.86508C0.138333 6.91848 0.203176 6.94518 0.28877 6.94518H9.92538C10.375 6.94518 10.7709 7.12604 11.1142 7.48949L18.0844 15.873L28.9107 28.9279Z" fill="#00D1FF" />
</svg>
    