<svg width="1440" height="956" viewBox="0 0 1440 956" fill="none" xmlns="http://www.w3.org/2000/svg">
    <path opacity="0.0526316" d="M1725.27 529.053L1725.77 529.107L1725.27 529.053C1722.01 559.182 1704.63 583.885 1675.92 602.578C1647.2 621.277 1607.17 633.947 1558.68 639.971C1461.71 652.02 1331.08 637.476 1189.98 591.63C1048.88 545.785 934.676 480.807 863.322 414.083C827.644 380.72 802.703 346.943 790.456 314.927C778.213 282.922 778.659 252.699 793.708 226.37C807.391 202.485 832.16 183.954 865.375 170.804C898.587 157.655 940.208 149.903 987.527 147.551C1082.16 142.847 1199.52 159.749 1317.82 198.186C1436.12 236.624 1541 291.93 1614.79 351.363C1651.69 381.079 1680.81 411.815 1699.95 441.974C1719.09 472.136 1728.24 501.686 1725.27 529.053Z" stroke="url(#paint0_linear_74_4442)" />
    <path opacity="0.105263" d="M1706.8 559.178L1707.29 559.264L1706.8 559.178C1701.8 587.85 1683.32 610.256 1654.12 626.042C1624.9 641.835 1584.99 650.987 1537.21 653.124C1441.65 657.397 1314.76 633.603 1179.54 578.968C1044.31 524.332 936.531 453.349 870.77 383.914C837.889 349.195 815.535 314.887 805.489 283.228C795.446 251.58 797.705 222.604 814.005 198.466C828.821 176.569 854.156 160.641 887.432 150.515C920.705 140.389 961.876 136.076 1008.3 137.378C1101.13 139.982 1214.89 165.04 1328.27 210.848C1441.64 256.655 1540.88 317.65 1609.47 380.268C1643.77 411.577 1670.39 443.279 1687.29 473.676C1704.19 504.077 1711.35 533.133 1706.8 559.178Z" stroke="url(#paint1_linear_74_4442)" />
    <path opacity="0.157895" d="M1686.45 587.391L1686.94 587.509L1686.45 587.391C1679.9 614.515 1660.55 634.595 1631.12 647.502C1601.68 660.415 1562.17 666.132 1515.4 664.511C1421.85 661.268 1299.36 628.679 1170.53 565.844C1041.7 503.009 940.627 426.592 880.487 354.891C850.415 319.038 830.6 284.392 822.645 253.234C814.694 222.089 818.597 194.461 835.915 172.555C851.657 152.683 877.319 139.343 910.401 132.18C943.478 125.018 983.927 124.042 1029.17 128.859C1119.66 138.493 1229.26 171.288 1337.27 223.97C1445.29 276.652 1538.6 342.825 1601.91 408.2C1633.56 440.888 1657.69 473.363 1672.41 503.838C1687.14 534.316 1692.42 562.751 1686.45 587.391Z" stroke="url(#paint2_linear_74_4442)" />
    <path opacity="0.210526" d="M1664.42 613.582L1664.9 613.73L1664.42 613.582C1656.5 639.085 1636.52 656.833 1607.12 666.91C1577.7 676.99 1538.88 679.378 1493.4 674.151C1402.43 663.699 1284.93 622.811 1162.97 552.397C1041.01 481.983 946.873 400.714 892.347 327.182C865.082 290.413 847.743 255.608 841.762 225.085C835.783 194.574 841.155 168.377 859.263 148.723C875.723 130.894 901.478 120.105 934.117 115.827C966.752 111.549 1006.22 113.787 1050.03 121.96C1137.65 138.307 1242.58 178.38 1344.83 237.416C1447.08 296.452 1534.25 367.282 1592.22 434.992C1621.2 468.847 1642.87 501.907 1655.48 532.308C1668.1 562.714 1671.63 590.412 1664.42 613.582Z" stroke="url(#paint3_linear_74_4442)" />
    <path opacity="0.263158" d="M1640.88 637.654L1641.35 637.832L1640.88 637.654C1631.78 661.482 1611.4 676.912 1582.26 684.229C1553.12 691.548 1515.26 690.733 1471.34 682.075C1383.49 664.76 1271.54 616.11 1156.87 538.764C1042.2 461.418 955.166 375.88 906.213 300.94C881.734 263.467 866.797 228.675 862.664 198.904C858.532 169.146 865.195 144.444 883.866 127.041C900.838 111.254 926.458 102.961 958.419 101.468C990.373 99.975 1028.61 105.282 1070.75 116.634C1155.01 139.338 1254.79 186.2 1350.94 251.048C1447.08 315.897 1527.9 390.856 1580.52 460.483C1606.83 495.298 1626.08 528.762 1636.66 558.95C1647.25 589.143 1649.16 616.004 1640.88 637.654Z" stroke="url(#paint4_linear_74_4442)" />
    <path opacity="0.315789" d="M1616.02 659.526L1616.45 659.722L1616.02 659.526C1605.93 681.645 1585.37 694.791 1556.74 699.438C1528.11 704.087 1491.46 700.216 1449.35 688.32C1365.13 664.531 1259.22 608.69 1152.2 525.079C1045.18 441.469 965.39 352.248 921.939 276.308C900.212 238.335 887.591 203.716 885.173 174.8C882.755 145.898 890.53 122.741 909.541 107.567C926.823 93.8024 952.089 87.9305 983.147 89.1043C1014.2 90.2779 1050.97 98.4923 1091.21 112.829C1171.67 141.5 1265.88 194.63 1355.61 264.731C1445.33 334.832 1519.68 413.391 1566.96 484.529C1590.61 520.099 1607.47 553.796 1616.12 583.64C1624.78 613.491 1625.19 639.427 1616.02 659.526Z" stroke="url(#paint5_linear_74_4442)" />
    <path opacity="0.368421" d="M1590.02 679.135C1579.14 699.526 1558.61 710.443 1530.72 712.531C1502.82 714.619 1467.62 707.859 1427.56 692.937C1347.43 663.097 1248 600.669 1148.94 511.477C1049.88 422.284 977.414 329.963 939.366 253.416C920.34 215.138 909.939 180.84 909.098 152.869C908.257 124.91 916.963 103.328 936.098 90.342C953.495 78.5627 978.198 75.0187 1008.14 78.7243C1038.07 82.4288 1073.18 93.3714 1111.3 110.481C1187.55 144.7 1275.81 203.553 1358.87 278.333C1441.92 353.114 1509.67 434.742 1551.68 506.996C1572.68 543.124 1587.23 576.89 1594.04 606.272C1600.86 635.663 1599.91 660.602 1590.02 679.135Z" stroke="url(#paint6_linear_74_4442)" />
    <path opacity="0.421053" d="M1563.08 696.431C1551.6 715.096 1531.31 723.857 1504.37 723.513C1477.42 723.168 1443.88 713.705 1406.07 695.985C1330.46 660.549 1237.91 592.164 1147.06 498.084C1056.21 404.005 991.1 309.159 958.328 232.377C941.94 193.982 933.653 160.14 934.248 133.186C934.843 106.246 944.304 86.2522 963.352 75.3936C980.674 65.5446 1004.62 64.218 1033.25 70.3038C1061.87 76.3874 1095.1 89.8638 1130.93 109.523C1202.59 148.841 1284.58 212.848 1360.75 291.726C1436.92 370.604 1498.03 454.774 1534.82 527.763C1553.22 564.259 1565.53 597.94 1570.61 626.755C1575.69 655.58 1573.53 679.463 1563.08 696.431Z" stroke="url(#paint7_linear_74_4442)" />
    <path opacity="0.473684" d="M1535.4 711.38C1523.5 728.338 1503.65 735.034 1477.86 732.403C1452.05 729.77 1420.38 717.803 1385.02 697.527C1314.3 656.981 1228.96 583.29 1146.5 485.025C1064.05 386.76 1006.3 289.956 978.654 213.291C964.828 174.954 958.543 141.69 960.43 115.814C962.317 89.9496 972.357 71.5415 991.119 62.7314C1008.19 54.7415 1031.19 55.5062 1058.32 63.806C1085.45 72.102 1116.63 87.904 1150 109.877C1216.74 153.82 1292.17 222.398 1361.31 304.785C1430.44 387.172 1484.87 473.364 1516.56 546.723C1532.4 583.404 1542.55 616.858 1546.01 645.011C1549.47 673.177 1546.23 695.96 1535.4 711.38Z" stroke="url(#paint8_linear_74_4442)" />
    <path opacity="0.526316" d="M1507.17 723.965L1507.56 724.276L1507.17 723.965C1495.03 739.25 1475.8 743.99 1451.33 739.232C1426.86 734.472 1397.23 720.217 1364.48 697.64C1298.99 652.492 1221.14 574.163 1147.22 472.416C1073.3 370.67 1022.86 272.461 1000.16 196.243C988.811 158.128 984.408 125.552 987.444 100.798C990.479 76.0531 1000.93 59.2112 1019.21 52.3535C1035.85 46.1358 1057.74 48.851 1083.22 59.1851C1108.68 69.5136 1137.66 87.4209 1168.43 111.46C1229.97 159.536 1298.61 232.086 1360.59 317.392C1422.57 402.698 1470.36 490.402 1497.06 563.785C1510.42 600.478 1518.49 633.57 1520.45 660.981C1522.4 688.408 1518.22 710.061 1507.17 723.965Z" stroke="url(#paint9_linear_74_4442)" />
    <path opacity="0.578947" d="M1478.57 734.185C1466.37 747.849 1447.94 750.756 1424.96 744.045C1401.98 737.332 1374.56 721.016 1344.57 696.403C1284.59 647.184 1214.45 564.897 1149.14 460.371C1083.82 355.844 1040.61 256.767 1022.67 181.302C1013.69 143.563 1011.05 111.77 1015.09 88.1664C1019.13 64.5703 1029.82 49.2602 1047.45 44.2422C1063.51 39.6949 1084.12 44.2064 1107.8 56.3839C1131.46 68.5531 1158.09 88.3353 1186.14 114.186C1242.23 165.886 1303.91 241.801 1358.67 329.438C1413.44 417.074 1454.63 505.792 1476.51 578.871C1487.45 615.412 1493.55 648.023 1494.12 674.623C1494.68 701.242 1489.7 721.749 1478.57 734.185Z" stroke="url(#paint10_linear_74_4442)" />
    <path opacity="0.631579" d="M1449.82 742.052C1437.7 754.161 1420.23 755.374 1398.89 746.896C1377.55 738.417 1352.48 720.278 1325.36 693.903C1271.13 641.161 1208.87 555.604 1152.18 448.992C1095.5 342.38 1059.38 242.953 1045.98 168.521C1039.28 131.299 1038.26 100.371 1043.16 77.9324C1048.07 55.4985 1058.85 41.6712 1075.66 38.3654C1090.98 35.374 1110.19 41.5159 1131.93 55.3355C1153.66 69.1435 1177.84 90.5616 1203.06 117.963C1253.51 172.762 1308.1 251.431 1355.63 340.816C1403.16 430.201 1437.85 519.45 1455.07 591.919C1463.68 628.155 1467.92 660.175 1467.21 685.91C1466.51 711.666 1460.86 731.023 1449.82 742.052Z" stroke="url(#paint11_linear_74_4442)" />
    <path opacity="0.684211" d="M1421.07 747.594L1421.41 747.966L1421.07 747.594C1409.21 758.229 1392.83 757.902 1373.26 747.853C1353.7 737.804 1331.08 718.089 1306.93 690.231C1258.64 634.525 1204.36 546.389 1156.27 438.376C1108.18 330.363 1079 231.08 1069.91 157.938C1065.37 121.361 1065.85 91.364 1071.48 70.0922C1077.1 48.8202 1087.82 36.4134 1103.66 34.6783C1118.12 33.1157 1135.79 40.7116 1155.5 55.9638C1175.19 71.2003 1196.81 94.0088 1219.14 122.694C1263.8 180.062 1311.23 260.872 1351.55 351.432C1391.87 441.993 1420.19 531.308 1432.94 602.882C1439.31 638.671 1441.79 670.004 1439.94 694.83C1438.09 719.681 1431.91 737.899 1421.07 747.594Z" stroke="url(#paint12_linear_74_4442)" />
    <path opacity="0.736842" d="M1392.53 750.853L1392.85 751.243L1392.53 750.854C1381.06 760.107 1365.91 758.406 1348.21 746.989C1330.52 735.577 1310.46 714.54 1289.35 685.484C1247.14 627.382 1200.88 537.356 1161.3 428.61C1121.72 319.864 1099.28 221.197 1094.27 149.574C1091.76 113.756 1093.61 84.7444 1099.83 64.6265C1106.04 44.5015 1116.56 33.4411 1131.3 33.1227C1144.77 32.8511 1160.81 41.7161 1178.39 58.1844C1195.95 74.6325 1214.95 98.5811 1234.33 128.283C1273.09 187.682 1313.33 270.023 1346.51 361.198C1379.7 452.373 1401.8 541.312 1410.29 611.731C1414.54 646.942 1415.37 677.503 1412.5 701.389C1409.61 725.304 1403.02 742.407 1392.53 750.853Z" stroke="url(#paint13_linear_74_4442)" />
    <path opacity="0.789474" d="M1364.37 751.888L1364.65 752.277L1364.37 751.888C1358.87 755.893 1352.68 757.145 1345.91 755.847C1339.12 754.545 1331.72 750.673 1323.87 744.392C1308.15 731.83 1290.69 709.729 1272.67 679.761C1236.63 619.836 1198.39 528.601 1167.18 419.772C1135.98 310.942 1120.06 213.337 1118.86 143.435C1118.26 108.477 1121.35 80.4902 1128.03 61.5009C1131.36 52.007 1135.58 44.7993 1140.65 40.088C1145.71 35.3894 1151.63 33.1607 1158.41 33.6286C1170.79 34.5002 1185.11 44.4422 1200.49 61.9059C1215.85 79.3435 1232.18 104.179 1248.59 134.627C1281.4 195.52 1314.47 278.791 1340.63 370.036C1366.8 461.281 1382.88 549.423 1387.32 618.449C1389.55 652.964 1388.86 682.681 1385.07 705.609C1381.28 728.571 1374.4 744.592 1364.37 751.888Z" stroke="url(#paint14_linear_74_4442)" />
    <path opacity="0.842105" d="M1336.75 750.766L1337.02 751.183L1336.75 750.766C1331.57 754.192 1325.9 754.899 1319.82 753.086C1313.71 751.267 1307.18 746.903 1300.34 740.156C1286.66 726.661 1271.87 703.758 1256.95 673.163C1227.11 611.988 1196.83 520.215 1173.81 411.929C1150.79 303.643 1141.13 207.515 1143.5 139.509C1144.68 105.498 1148.88 78.5637 1155.89 60.6652C1159.39 51.7155 1163.59 45.0667 1168.43 40.9139C1173.25 36.7762 1178.72 35.1053 1184.85 36.1135C1190.43 37.0408 1196.36 40.2006 1202.55 45.4302C1208.74 50.6574 1215.16 57.9287 1221.71 67.0297C1234.83 85.2316 1248.46 110.701 1261.89 141.628C1288.73 203.478 1314.71 287.089 1334.01 377.878C1353.31 468.668 1363.58 555.615 1364.22 623.037C1364.53 656.751 1362.43 685.563 1357.86 707.526C1355.57 718.508 1352.66 727.761 1349.13 735.053C1345.61 742.349 1341.47 747.648 1336.75 750.766Z" stroke="url(#paint15_linear_74_4442)" />
    <path opacity="0.894737" d="M1309.83 747.57L1310.09 747.994L1309.83 747.57C1305.02 750.479 1299.92 750.721 1294.56 748.486C1289.18 746.24 1283.54 741.486 1277.74 734.382C1266.14 720.177 1254.04 696.732 1242.22 665.796C1218.58 603.938 1196.12 512.284 1181.07 405.141C1166.01 297.999 1162.32 203.734 1167.99 137.771C1170.82 104.782 1176 78.9125 1183.23 62.0559C1186.85 53.6256 1190.96 47.4957 1195.52 43.8456C1200.05 40.2136 1205.03 39.0284 1210.46 40.4851C1215.41 41.8229 1220.57 45.3563 1225.87 50.9318C1231.16 56.5033 1236.55 64.0818 1241.97 73.4519C1252.82 92.1917 1263.75 118.041 1274.21 149.182C1295.12 211.46 1314.13 294.836 1326.75 384.667C1339.38 474.498 1344.09 559.88 1341.15 625.512C1339.68 658.329 1336.3 686.191 1331.04 707.194C1328.41 717.695 1325.32 726.467 1321.77 733.28C1318.21 740.099 1314.23 744.918 1309.83 747.57Z" stroke="url(#paint16_linear_74_4442)" />
    <path opacity="0.947368" d="M1283.77 742.394L1284.02 742.831L1283.77 742.394C1279.38 744.852 1274.88 744.712 1270.28 742.15C1265.64 739.569 1260.91 734.528 1256.16 727.179C1246.68 712.487 1237.26 688.761 1228.5 657.763C1211 595.783 1196.21 504.883 1188.84 399.454C1181.47 294.026 1183.46 201.978 1192.16 138.179C1196.51 106.272 1202.53 81.4689 1209.88 65.5949C1213.56 57.654 1217.55 51.9982 1221.78 48.7909C1225.98 45.6056 1230.42 44.8309 1235.12 46.6401C1239.42 48.304 1243.79 52.1183 1248.17 57.9417C1252.55 63.7584 1256.91 71.5375 1261.19 81.0636C1269.76 100.115 1278.01 126.094 1285.54 157.19C1300.61 219.377 1312.8 301.96 1318.98 390.354C1325.16 478.748 1324.58 562.224 1318.32 625.903C1315.18 657.744 1310.63 684.619 1304.8 704.677C1301.88 714.707 1298.65 723.016 1295.13 729.385C1291.6 735.762 1287.8 740.148 1283.77 742.394Z" stroke="url(#paint17_linear_74_4442)" />
    <path d="M1258.71 735.343L1258.71 735.343C1256.72 736.39 1254.77 736.789 1252.85 736.593C1250.93 736.396 1249 735.597 1247.07 734.191C1243.2 731.371 1239.39 726.145 1235.7 718.661C1228.33 703.705 1221.57 679.955 1215.83 649.17C1204.36 587.615 1197.01 498.08 1197.01 394.904C1197.01 291.728 1204.35 202.219 1215.82 140.677C1221.55 109.898 1228.31 86.1513 1235.69 71.1909C1239.37 63.7046 1243.19 58.4738 1247.06 55.6459C1248.99 54.2367 1250.92 53.4339 1252.85 53.2324C1254.77 53.0312 1256.72 53.4256 1258.71 54.4657C1262.34 56.3696 1265.91 60.3718 1269.37 66.3452C1272.83 72.3081 1276.16 80.1813 1279.31 89.7515C1285.61 108.89 1291.21 134.754 1295.88 165.551C1305.22 227.141 1310.81 308.398 1310.81 394.904C1310.81 481.41 1305.22 562.667 1295.88 624.257C1291.21 655.054 1285.61 680.918 1279.31 700.057C1276.16 709.627 1272.83 717.5 1269.37 723.463C1265.91 729.437 1262.34 733.439 1258.71 735.343Z" stroke="url(#paint18_linear_74_4442)" />
    <path opacity="0.0526316" d="M13.5927 140.374L13.3909 139.916L13.5929 140.374C41.313 128.129 71.398 130.83 101.94 146.346C132.494 161.867 163.484 190.205 192.944 229.183C251.863 307.136 304.584 427.54 335.43 572.657C366.275 717.774 367.107 849.17 344.999 944.326C333.945 991.906 317.163 1030.39 295.56 1057.01C273.965 1083.61 247.569 1098.34 217.242 1098.47C189.715 1098.56 161.283 1086.38 133.287 1064.19C105.294 1042 77.7697 1009.83 52.0731 970.028C0.680506 890.421 -43.3601 780.337 -69.2216 658.668C-95.0831 536.999 -99.6251 418.52 -85.0546 324.892C-77.7693 278.078 -65.7088 237.496 -49.1603 205.839C-32.6107 174.181 -11.5923 151.485 13.5927 140.374Z" stroke="url(#paint19_linear_74_4442)" />
    <path opacity="0.105263" d="M48.9183 141.31L48.7467 140.84L48.9186 141.31C76.2484 131.303 104.893 136.105 133.164 153.499C161.447 170.901 189.331 200.894 215.073 241.206C266.554 321.827 309.389 443.606 329.687 588.035C349.985 732.464 342.4 861.293 315.148 952.961C301.521 998.797 282.987 1035.31 260.592 1059.84C238.206 1084.36 211.982 1096.89 182.928 1094.84C156.556 1092.96 130.095 1078.99 104.687 1055.23C79.2813 1031.48 54.9611 997.979 32.8787 957.128C-11.2855 875.426 -46.4614 764.383 -63.4797 643.291C-80.4981 522.199 -77.2924 405.762 -57.3592 315.052C-47.3924 269.696 -33.2479 230.791 -15.3732 200.956C2.50308 171.118 24.0867 150.389 48.9183 141.31Z" stroke="url(#paint20_linear_74_4442)" />
    <path opacity="0.157895" d="M83.5221 144.819L83.3811 144.339L83.5223 144.819C110.29 136.934 137.353 143.648 163.246 162.682C189.149 181.723 213.854 213.078 235.838 254.399C279.805 337.036 312.826 459.408 322.824 602.396C332.823 745.385 317.18 871.124 285.155 959.057C269.142 1003.03 249.044 1037.51 226.038 1059.98C203.042 1082.44 177.164 1092.87 149.533 1088.83C124.452 1085.13 100.069 1069.57 77.3246 1044.51C54.5833 1019.44 33.5142 984.9 15.0632 943.307C-21.8382 860.124 -48.2354 748.814 -56.6186 628.93C-65.0017 509.045 -54.3528 395.145 -29.3873 307.635C-16.9044 263.88 -0.847646 226.742 18.184 198.756C37.2178 170.766 59.1996 151.97 83.5221 144.819Z" stroke="url(#paint21_linear_74_4442)" />
    <path opacity="0.210526" d="M117.22 150.804L117.11 150.316L117.22 150.804C143.268 144.914 168.628 153.343 192.057 173.769C215.495 194.204 236.971 226.627 255.188 268.632C291.619 352.637 314.956 474.835 314.956 615.663C314.956 756.49 291.646 878.653 255.228 962.641C237.018 1004.64 215.546 1037.06 192.102 1057.5C168.668 1077.93 143.295 1086.38 117.22 1080.52C93.5494 1075.18 71.3291 1058.27 51.3041 1032.14C31.2821 1006.02 13.4869 970.723 -1.34056 928.694C-30.9949 844.638 -48.7521 733.735 -48.7521 615.663C-48.7521 497.59 -30.9949 386.687 -1.34054 302.631C13.4869 260.602 31.2821 225.305 51.3041 199.181C71.3291 173.054 93.5495 156.144 117.22 150.804Z" stroke="url(#paint22_linear_74_4442)" />
    <path opacity="0.263158" d="M149.838 159.156L149.759 158.663L149.838 159.156C175.024 155.122 198.579 165.061 219.481 186.631C240.392 208.211 258.615 241.406 273.079 283.774C302.006 368.506 315.851 489.787 306.203 627.767C296.554 765.747 265.992 883.889 225.569 963.754C205.356 1003.69 182.694 1034.02 158.978 1052.49C135.272 1070.94 110.549 1077.52 86.1418 1070.06C63.9837 1063.25 43.9921 1045.21 26.7184 1018.28C9.44804 991.351 -5.07443 955.583 -16.3106 913.417C-38.7825 829.086 -48.0889 719.243 -39.9994 603.558C-31.91 487.873 -7.40685 380.395 26.5828 300.012C43.5781 259.82 62.9371 226.422 83.787 202.16C104.641 177.894 126.949 162.811 149.838 159.156Z" stroke="url(#paint23_linear_74_4442)" />
    <path opacity="0.315789" d="M181.212 169.753L181.167 169.282L181.212 169.753C205.409 167.425 227.077 178.664 245.412 201.127C263.755 223.601 278.728 257.275 289.481 299.693C310.987 384.521 315.586 504.167 296.686 638.652C277.785 773.137 240.414 886.85 196.374 962.45C174.352 1000.25 150.682 1028.49 126.849 1045.04C103.027 1061.59 79.0857 1066.43 56.4392 1057.56C35.8774 1049.47 18.1591 1030.53 3.64711 1003.04C-10.8615 975.568 -22.1361 939.611 -29.8371 897.6C-45.2387 813.579 -46.3322 705.425 -30.4856 592.671C-14.639 479.916 16.2234 376.254 54.1875 299.733C73.1701 261.472 93.919 230.016 115.439 207.603C136.964 185.184 159.218 171.857 181.212 169.753Z" stroke="url(#paint24_linear_74_4442)" />
    <path opacity="0.368421" d="M211.193 182.464C234.29 181.686 254.011 194.009 269.762 217.116C285.519 240.233 297.266 274.099 304.377 316.258C318.597 400.569 314.249 517.892 286.535 648.275C258.821 778.659 215.103 887.58 167.835 958.804C144.199 994.419 119.697 1020.58 95.893 1035.29C72.1005 1050 49.0568 1053.25 28.2433 1043.17C9.34377 1033.99 -6.07731 1014.37 -17.8391 986.59C-29.5975 958.814 -37.6721 922.943 -41.9171 881.371C-50.4069 798.228 -43.5709 692.364 -20.3351 583.048C2.90071 473.732 39.7147 374.24 81.2876 301.739C102.075 265.487 124.041 236.001 146.08 215.41C168.126 194.813 190.195 183.159 211.193 182.464Z" stroke="url(#paint25_linear_74_4442)" />
    <path opacity="0.421053" d="M239.641 197.144C261.545 197.752 279.278 210.945 292.449 234.446C305.626 257.958 314.198 291.734 317.757 333.338C324.874 416.537 311.928 530.883 275.879 656.603C239.829 782.323 190.244 886.129 140.134 952.902C115.077 986.292 89.9122 1010.39 66.2725 1023.35C42.6436 1036.31 20.5987 1038.11 1.6706 1027.04C-15.5199 1016.97 -28.6407 996.893 -37.6851 969.056C-46.7264 941.229 -51.6712 905.711 -52.5614 864.851C-54.3416 783.132 -39.9027 680.126 -9.67821 574.721C20.5463 469.315 62.8863 374.31 107.7 305.952C130.108 271.772 153.123 244.272 175.536 225.464C197.958 206.65 219.722 196.58 239.641 197.144Z" stroke="url(#paint26_linear_74_4442)" />
    <path opacity="0.473684" d="M266.427 213.642C287.062 215.468 302.788 229.313 313.405 252.965C324.028 276.628 329.499 310.04 329.622 350.803C329.866 432.32 308.718 543.073 264.846 663.613C220.973 784.153 166.012 882.565 113.442 944.842C87.154 975.984 61.4896 998.059 38.1366 1009.36C14.7938 1020.66 -6.16776 1021.17 -23.1786 1009.33C-38.6314 998.542 -49.4689 978.241 -55.8495 950.59C-62.2273 922.951 -64.134 888.045 -61.7914 848.157C-57.1065 768.385 -35.4314 668.772 1.35241 567.709C38.1362 466.647 85.562 376.406 133.25 312.286C157.095 280.224 180.993 254.71 203.644 237.637C226.306 220.556 247.657 211.971 266.427 213.642Z" stroke="url(#paint27_linear_74_4442)" />
    <path opacity="0.526316" d="M291.443 231.799L291.516 231.305L291.443 231.799C310.75 234.669 324.468 248.952 332.58 272.518C340.696 296.094 343.163 328.878 339.985 368.528C333.632 447.819 304.722 554.404 253.568 669.297C202.415 784.189 142.582 876.972 87.9239 934.74C60.5914 963.627 34.5814 983.728 11.6253 993.476C-11.3216 1003.22 -31.1312 1002.59 -46.2133 990.185C-59.9182 978.883 -68.509 958.573 -72.2993 931.34C-76.0875 904.122 -75.068 870.073 -69.6346 831.405C-58.7684 754.073 -30.2604 658.351 12.6275 562.023C55.5155 465.695 107.576 380.459 157.773 320.638C182.873 290.727 207.494 267.186 230.256 251.789C253.031 236.383 273.873 229.177 291.443 231.799Z" stroke="url(#paint28_linear_74_4442)" />
    <path opacity="0.578947" d="M314.589 251.451C332.527 255.191 344.26 269.7 349.935 292.951C355.611 316.209 355.191 348.113 348.872 386.394C336.236 462.946 300.043 564.831 242.178 673.659C184.313 782.487 120.116 869.448 63.7328 922.721C35.5372 949.362 9.32611 967.549 -13.1356 975.852C-35.5899 984.152 -54.1949 982.547 -67.3568 969.787C-79.322 958.157 -85.7223 938.048 -87.0147 911.454C-88.3062 884.879 -84.4917 851.922 -76.1279 814.706C-59.4011 740.279 -24.4971 648.905 24.0179 557.661C72.5329 466.418 128.768 386.385 181.117 330.899C207.293 303.155 232.483 281.563 255.237 267.773C278.007 253.973 298.257 248.035 314.589 251.451Z" stroke="url(#paint29_linear_74_4442)" />
    <path opacity="0.631579" d="M335.781 272.423C352.325 276.86 362.114 291.388 365.439 314.103C368.765 336.822 365.595 367.609 356.312 404.281C337.749 477.613 294.787 574.314 230.801 676.712C166.816 779.11 98.7658 860.099 41.0077 908.921C12.1239 933.337 -14.1537 949.68 -36.037 956.653C-57.9161 963.626 -75.2805 961.204 -86.5504 948.296C-96.8013 936.523 -101.085 916.819 -99.9902 891.077C-98.896 865.356 -92.436 833.709 -81.319 798.162C-59.0862 727.071 -18.2527 640.46 35.3937 554.608C89.0401 468.755 148.986 394.087 203.135 342.94C230.212 317.365 255.824 297.686 278.462 285.427C301.119 273.158 320.707 268.371 335.781 272.423Z" stroke="url(#paint30_linear_74_4442)" />
    <path opacity="0.684211" d="M354.952 294.543L355.107 294.068L354.952 294.543C370.095 299.502 378 313.849 379.082 335.82C380.163 357.79 374.399 387.237 362.347 422.078C338.248 491.748 289.062 582.828 219.565 678.482C150.068 774.136 78.675 849.046 19.8771 893.488C-9.52716 915.713 -35.7475 930.292 -56.9823 936.056C-78.2174 941.819 -94.3205 938.741 -103.746 925.886C-112.326 914.151 -114.585 895.045 -111.23 870.353C-107.878 845.685 -98.9384 815.552 -85.2611 781.871C-57.9079 714.512 -11.6377 633.036 46.6299 552.837C104.897 472.639 168.088 403.456 223.697 356.626C251.504 333.21 277.399 315.397 299.823 304.586C322.271 293.765 341.14 290.01 354.952 294.543Z" stroke="url(#paint31_linear_74_4442)" />
    <path opacity="0.736842" d="M372.045 317.629L372.225 317.163L372.045 317.63C385.796 322.94 391.899 336.914 390.859 357.946C389.82 378.97 381.636 406.869 367.027 439.677C337.813 505.281 282.977 590.355 208.59 679.005C134.203 767.656 59.9736 836.42 0.454663 876.575C-29.3106 896.656 -55.3615 909.559 -75.8914 914.235C-96.4286 918.914 -111.265 915.337 -118.912 902.728C-125.88 891.203 -126.223 872.879 -120.751 849.42C-115.285 825.991 -104.047 797.559 -88.016 765.923C-55.9557 702.654 -4.76362 626.639 57.6037 552.313C119.971 477.986 185.942 414.372 242.682 371.812C271.054 350.531 297.102 334.526 319.227 325.075C341.379 315.613 359.485 312.769 372.045 317.629Z" stroke="url(#paint32_linear_74_4442)" />
    <path opacity="0.789474" d="M387.022 341.504L387.218 341.063L387.023 341.504C393.241 344.263 397.42 348.996 399.681 355.511C401.949 362.043 402.294 370.383 400.784 380.329C397.764 400.224 387.35 426.388 370.408 456.981C336.532 518.155 276.64 596.889 197.994 678.33C119.348 759.77 42.7809 822.362 -17.1585 858.347C-47.1346 876.343 -72.9155 887.662 -92.698 891.377C-102.588 893.234 -110.941 893.183 -117.556 891.147C-124.154 889.117 -129.041 885.11 -132.03 878.997C-137.461 867.846 -136.012 850.472 -128.58 828.418C-121.159 806.396 -107.816 779.834 -89.6504 750.402C-53.3206 691.542 2.26001 621.268 68.1984 552.987C134.137 484.706 202.428 426.707 259.985 388.345C288.765 369.163 314.845 354.901 336.594 346.716C358.376 338.519 375.689 336.464 387.022 341.504Z" stroke="url(#paint33_linear_74_4442)" />
    <path opacity="0.842105" d="M399.861 365.985L400.085 365.538L399.862 365.985C405.42 368.76 408.866 373.316 410.337 379.489C411.813 385.684 411.301 393.524 408.879 402.823C404.033 421.42 391.592 445.678 372.557 473.897C334.494 530.321 270.16 602.437 187.89 676.513C105.62 750.589 27.2029 807.023 -32.8764 838.975C-62.9228 854.954 -88.3456 864.79 -107.352 867.667C-116.856 869.105 -124.711 868.796 -130.727 866.683C-136.72 864.577 -140.902 860.677 -143.094 854.863C-145.082 849.565 -145.311 842.849 -143.877 834.873C-142.444 826.901 -139.357 817.706 -134.754 807.476C-125.549 787.016 -110.309 762.474 -90.2373 735.385C-50.0964 681.211 9.32518 616.911 78.3023 554.803C147.279 492.696 217.439 440.321 275.512 406.063C304.551 388.933 330.552 376.342 351.861 369.326C362.516 365.817 371.983 363.708 380.062 363.116C388.144 362.524 394.8 363.454 399.861 365.985Z" stroke="url(#paint34_linear_74_4442)" />
    <path opacity="0.894737" d="M410.552 390.893L410.791 390.459L410.552 390.893C415.478 393.606 418.239 397.906 418.98 403.66C419.726 409.443 418.43 416.707 415.178 425.282C408.676 442.429 394.423 464.633 373.543 490.339C331.791 541.738 263.642 607.011 178.383 673.622C93.1239 740.234 13.3315 790.56 -46.6278 818.633C-76.6146 832.672 -101.604 841.129 -119.819 843.291C-128.929 844.373 -136.296 843.874 -141.734 841.754C-147.146 839.644 -150.661 835.928 -152.115 830.496C-153.433 825.536 -152.954 819.3 -150.772 811.928C-148.592 804.561 -144.725 796.102 -139.321 786.721C-128.514 767.959 -111.594 745.567 -89.8548 720.939C-46.3784 671.686 16.3262 613.543 87.8097 557.694C159.293 501.845 230.879 455.069 289.187 424.799C318.343 409.663 344.163 398.663 364.982 392.716C375.391 389.743 384.535 388.037 392.21 387.704C399.892 387.37 406.059 388.414 410.552 390.893Z" stroke="url(#paint35_linear_74_4442)" />
    <path opacity="0.947368" d="M419.099 416.049L419.355 415.619L419.099 416.049C423.426 418.628 425.556 422.596 425.637 427.861C425.718 433.163 423.719 439.783 419.727 447.568C411.747 463.13 395.91 483.151 373.442 506.229C328.515 552.375 257.188 610.634 169.571 669.733C81.9531 728.831 1.24405 773.134 -58.3578 797.499C-88.1662 809.685 -112.659 816.868 -130.082 818.438C-138.798 819.224 -145.689 818.599 -150.582 816.539C-155.441 814.493 -158.333 811.033 -159.116 806.059C-159.825 801.504 -158.707 795.811 -155.855 789.105C-153.006 782.406 -148.447 774.743 -142.339 766.27C-130.123 749.326 -111.749 729.193 -88.5858 707.121C-42.2629 662.981 23.1604 611.131 96.6213 561.581C170.082 512.031 242.664 470.795 300.944 444.38C330.085 431.172 355.635 421.677 375.922 416.699C386.066 414.209 394.878 412.853 402.157 412.721C409.444 412.589 415.141 413.685 419.099 416.049Z" stroke="url(#paint36_linear_74_4442)" />
    <path d="M425.523 441.279L425.524 441.279C427.424 442.478 428.747 443.969 429.537 445.731C430.329 447.496 430.601 449.564 430.347 451.936C429.838 456.696 427.219 462.613 422.582 469.549C413.316 483.41 396.128 501.141 372.336 521.501C324.763 562.212 250.897 613.342 161.544 664.93C72.1907 716.518 -8.99531 754.917 -68.0254 775.759C-97.548 786.182 -121.494 792.201 -138.136 793.296C-146.464 793.845 -152.902 793.155 -157.286 791.217C-159.471 790.251 -161.131 788.982 -162.268 787.415C-163.404 785.85 -164.039 783.96 -164.134 781.717C-164.298 777.625 -162.618 772.53 -159.177 766.543C-155.742 760.566 -150.585 753.753 -143.873 746.238C-130.449 731.21 -110.852 713.426 -86.5151 693.985C-37.8448 655.104 29.7308 609.635 104.647 566.382C179.563 523.129 252.729 487.342 310.736 464.632C339.741 453.277 364.941 445.197 384.667 441.086C394.531 439.03 403.01 437.97 409.904 437.984C416.81 437.998 422.062 439.09 425.523 441.279Z" stroke="url(#paint37_linear_74_4442)" />
    <defs>
        <linearGradient id="paint0_linear_74_4442" x1="747.28" y1="448.313" x2="1725.35" y2="150.419" gradientUnits="userSpaceOnUse">
            <stop stop-color="#85FFC4" />
            <stop offset="0.902469" stop-color="#5CC6FF" />
        </linearGradient>
        <linearGradient id="paint1_linear_74_4442" x1="755.212" y1="408.069" x2="1724.44" y2="173.839" gradientUnits="userSpaceOnUse">
            <stop stop-color="#85FFC4" />
            <stop offset="0.902469" stop-color="#5CC6FF" />
        </linearGradient>
        <linearGradient id="paint2_linear_74_4442" x1="766.239" y1="369.215" x2="1722.09" y2="195.901" gradientUnits="userSpaceOnUse">
            <stop stop-color="#85FFC4" />
            <stop offset="0.902469" stop-color="#5CC6FF" />
        </linearGradient>
        <linearGradient id="paint3_linear_74_4442" x1="780.206" y1="331.983" x2="1718.4" y2="216.489" gradientUnits="userSpaceOnUse">
            <stop stop-color="#85FFC4" />
            <stop offset="0.902469" stop-color="#5CC6FF" />
        </linearGradient>
        <linearGradient id="paint4_linear_74_4442" x1="796.937" y1="296.59" x2="1713.52" y2="235.497" gradientUnits="userSpaceOnUse">
            <stop stop-color="#85FFC4" />
            <stop offset="0.902469" stop-color="#5CC6FF" />
        </linearGradient>
        <linearGradient id="paint5_linear_74_4442" x1="816.246" y1="263.237" x2="1707.57" y2="252.825" gradientUnits="userSpaceOnUse">
            <stop stop-color="#85FFC4" />
            <stop offset="0.902469" stop-color="#5CC6FF" />
        </linearGradient>
        <linearGradient id="paint6_linear_74_4442" x1="837.923" y1="232.107" x2="1700.66" y2="268.378" gradientUnits="userSpaceOnUse">
            <stop stop-color="#85FFC4" />
            <stop offset="0.902469" stop-color="#5CC6FF" />
        </linearGradient>
        <linearGradient id="paint7_linear_74_4442" x1="861.756" y1="203.365" x2="1692.94" y2="282.066" gradientUnits="userSpaceOnUse">
            <stop stop-color="#85FFC4" />
            <stop offset="0.902469" stop-color="#5CC6FF" />
        </linearGradient>
        <linearGradient id="paint8_linear_74_4442" x1="887.518" y1="177.155" x2="1684.49" y2="293.798" gradientUnits="userSpaceOnUse">
            <stop stop-color="#85FFC4" />
            <stop offset="0.902469" stop-color="#5CC6FF" />
        </linearGradient>
        <linearGradient id="paint9_linear_74_4442" x1="914.97" y1="153.603" x2="1675.44" y2="303.489" gradientUnits="userSpaceOnUse">
            <stop stop-color="#85FFC4" />
            <stop offset="0.902469" stop-color="#5CC6FF" />
        </linearGradient>
        <linearGradient id="paint10_linear_74_4442" x1="943.866" y1="132.812" x2="1665.85" y2="311.051" gradientUnits="userSpaceOnUse">
            <stop stop-color="#85FFC4" />
            <stop offset="0.902469" stop-color="#5CC6FF" />
        </linearGradient>
        <linearGradient id="paint11_linear_74_4442" x1="973.958" y1="114.866" x2="1655.8" y2="316.394" gradientUnits="userSpaceOnUse">
            <stop stop-color="#85FFC4" />
            <stop offset="0.902469" stop-color="#5CC6FF" />
        </linearGradient>
        <linearGradient id="paint12_linear_74_4442" x1="1004.99" y1="99.8266" x2="1645.32" y2="319.426" gradientUnits="userSpaceOnUse">
            <stop stop-color="#85FFC4" />
            <stop offset="0.902469" stop-color="#5CC6FF" />
        </linearGradient>
        <linearGradient id="paint13_linear_74_4442" x1="1036.7" y1="87.7333" x2="1634.42" y2="320.05" gradientUnits="userSpaceOnUse">
            <stop stop-color="#85FFC4" />
            <stop offset="0.902469" stop-color="#5CC6FF" />
        </linearGradient>
        <linearGradient id="paint14_linear_74_4442" x1="1068.84" y1="78.6047" x2="1623.04" y2="318.169" gradientUnits="userSpaceOnUse">
            <stop stop-color="#85FFC4" />
            <stop offset="0.902469" stop-color="#5CC6FF" />
        </linearGradient>
        <linearGradient id="paint15_linear_74_4442" x1="1101.14" y1="72.4368" x2="1611.1" y2="313.686" gradientUnits="userSpaceOnUse">
            <stop stop-color="#85FFC4" />
            <stop offset="0.902469" stop-color="#5CC6FF" />
        </linearGradient>
        <linearGradient id="paint16_linear_74_4442" x1="1133.35" y1="69.2056" x2="1598.4" y2="306.515" gradientUnits="userSpaceOnUse">
            <stop stop-color="#85FFC4" />
            <stop offset="0.902469" stop-color="#5CC6FF" />
        </linearGradient>
        <linearGradient id="paint17_linear_74_4442" x1="1165.22" y1="68.8651" x2="1584.68" y2="296.598" gradientUnits="userSpaceOnUse">
            <stop stop-color="#85FFC4" />
            <stop offset="0.902469" stop-color="#5CC6FF" />
        </linearGradient>
        <linearGradient id="paint18_linear_74_4442" x1="1196.51" y1="71.3487" x2="1569.57" y2="283.926" gradientUnits="userSpaceOnUse">
            <stop stop-color="#85FFC4" />
            <stop offset="0.902469" stop-color="#5CC6FF" />
        </linearGradient>
        <linearGradient id="paint19_linear_74_4442" x1="432.665" y1="1027.71" x2="-314.352" y2="329.624" gradientUnits="userSpaceOnUse">
            <stop stop-color="#85FFC4" />
            <stop offset="0.902469" stop-color="#5CC6FF" />
        </linearGradient>
        <linearGradient id="paint20_linear_74_4442" x1="393.846" y1="1040.96" x2="-293.619" y2="318.695" gradientUnits="userSpaceOnUse">
            <stop stop-color="#85FFC4" />
            <stop offset="0.902469" stop-color="#5CC6FF" />
        </linearGradient>
        <linearGradient id="paint21_linear_74_4442" x1="354.683" y1="1050.84" x2="-273.335" y2="309.705" gradientUnits="userSpaceOnUse">
            <stop stop-color="#85FFC4" />
            <stop offset="0.902469" stop-color="#5CC6FF" />
        </linearGradient>
        <linearGradient id="paint22_linear_74_4442" x1="315.456" y1="1057.36" x2="-253.663" y2="302.601" gradientUnits="userSpaceOnUse">
            <stop stop-color="#85FFC4" />
            <stop offset="0.902469" stop-color="#5CC6FF" />
        </linearGradient>
        <linearGradient id="paint23_linear_74_4442" x1="276.44" y1="1060.56" x2="-234.76" y2="297.326" gradientUnits="userSpaceOnUse">
            <stop stop-color="#85FFC4" />
            <stop offset="0.902469" stop-color="#5CC6FF" />
        </linearGradient>
        <linearGradient id="paint24_linear_74_4442" x1="237.901" y1="1060.52" x2="-216.777" y2="293.818" gradientUnits="userSpaceOnUse">
            <stop stop-color="#85FFC4" />
            <stop offset="0.902469" stop-color="#5CC6FF" />
        </linearGradient>
        <linearGradient id="paint25_linear_74_4442" x1="200.103" y1="1057.31" x2="-199.856" y2="292.019" gradientUnits="userSpaceOnUse">
            <stop stop-color="#85FFC4" />
            <stop offset="0.902469" stop-color="#5CC6FF" />
        </linearGradient>
        <linearGradient id="paint26_linear_74_4442" x1="163.295" y1="1051.04" x2="-184.138" y2="291.868" gradientUnits="userSpaceOnUse">
            <stop stop-color="#85FFC4" />
            <stop offset="0.902469" stop-color="#5CC6FF" />
        </linearGradient>
        <linearGradient id="paint27_linear_74_4442" x1="127.716" y1="1041.84" x2="-169.757" y2="293.313" gradientUnits="userSpaceOnUse">
            <stop stop-color="#85FFC4" />
            <stop offset="0.902469" stop-color="#5CC6FF" />
        </linearGradient>
        <linearGradient id="paint28_linear_74_4442" x1="93.5924" y1="1029.84" x2="-156.836" y2="296.311" gradientUnits="userSpaceOnUse">
            <stop stop-color="#85FFC4" />
            <stop offset="0.902469" stop-color="#5CC6FF" />
        </linearGradient>
        <linearGradient id="paint29_linear_74_4442" x1="61.1392" y1="1015.21" x2="-145.494" y2="300.832" gradientUnits="userSpaceOnUse">
            <stop stop-color="#85FFC4" />
            <stop offset="0.902469" stop-color="#5CC6FF" />
        </linearGradient>
        <linearGradient id="paint30_linear_74_4442" x1="30.5519" y1="998.122" x2="-135.841" y2="306.865" gradientUnits="userSpaceOnUse">
            <stop stop-color="#85FFC4" />
            <stop offset="0.902469" stop-color="#5CC6FF" />
        </linearGradient>
        <linearGradient id="paint31_linear_74_4442" x1="2.01227" y1="978.768" x2="-127.976" y2="314.424" gradientUnits="userSpaceOnUse">
            <stop stop-color="#85FFC4" />
            <stop offset="0.902469" stop-color="#5CC6FF" />
        </linearGradient>
        <linearGradient id="paint32_linear_74_4442" x1="-24.3171" y1="957.351" x2="-121.983" y2="323.554" gradientUnits="userSpaceOnUse">
            <stop stop-color="#85FFC4" />
            <stop offset="0.902469" stop-color="#5CC6FF" />
        </linearGradient>
        <linearGradient id="paint33_linear_74_4442" x1="-48.2907" y1="934.085" x2="-117.926" y2="334.345" gradientUnits="userSpaceOnUse">
            <stop stop-color="#85FFC4" />
            <stop offset="0.902469" stop-color="#5CC6FF" />
        </linearGradient>
        <linearGradient id="paint34_linear_74_4442" x1="-69.7826" y1="909.196" x2="-115.835" y2="346.933" gradientUnits="userSpaceOnUse">
            <stop stop-color="#85FFC4" />
            <stop offset="0.902469" stop-color="#5CC6FF" />
        </linearGradient>
        <linearGradient id="paint35_linear_74_4442" x1="-88.6868" y1="882.915" x2="-115.695" y2="361.515" gradientUnits="userSpaceOnUse">
            <stop stop-color="#85FFC4" />
            <stop offset="0.902469" stop-color="#5CC6FF" />
        </linearGradient>
        <linearGradient id="paint36_linear_74_4442" x1="-104.919" y1="855.481" x2="-117.426" y2="378.353" gradientUnits="userSpaceOnUse">
            <stop stop-color="#85FFC4" />
            <stop offset="0.902469" stop-color="#5CC6FF" />
        </linearGradient>
        <linearGradient id="paint37_linear_74_4442" x1="-118.413" y1="827.141" x2="-120.842" y2="397.78" gradientUnits="userSpaceOnUse">
            <stop stop-color="#85FFC4" />
            <stop offset="0.902469" stop-color="#5CC6FF" />
        </linearGradient>
    </defs>
</svg>
    