<svg width="26" height="24" viewBox="0 0 26 24" fill="none" xmlns="http://www.w3.org/2000/svg">
    <path fill-rule="evenodd" clip-rule="evenodd" d="M1.69182 0.888778C1.44264 0.966551 1.20034 1.14006 1.06185 1.33991C0.819037 1.69027 0.82501 1.57606 0.82501 5.86495V9.81704L1.3836 10.3856L1.9422 10.9541V14.9329C1.9422 18.8426 1.94374 18.9157 2.03054 19.1477C2.14419 19.4515 2.45976 19.746 2.77059 19.8383C2.95854 19.8941 3.54369 19.9031 6.95876 19.9031H10.9285L11.502 20.4626L12.0755 21.022L16.086 21.0104C20.0711 20.9989 20.0977 20.9983 20.2937 20.9076C20.5453 20.7912 20.7912 20.5453 20.9076 20.2937C20.9983 20.0977 20.9989 20.0715 21.0104 16.0619L21.022 12.0272L20.4634 11.4631L19.9049 10.899L19.8932 6.86105L19.8816 2.82306L19.7536 2.59193C19.6832 2.46479 19.5401 2.29549 19.4355 2.21565C19.0648 1.93257 19.2251 1.9422 14.8837 1.9422H10.9541L10.3856 1.38361L9.81704 0.825012L5.84737 0.827891C2.64117 0.830211 1.84199 0.841899 1.69182 0.888778ZM15.2969 6.54845C15.3717 6.62326 15.3717 15.2221 15.2969 15.2969C15.2221 15.3717 6.62326 15.3717 6.54845 15.2969C6.47364 15.2221 6.47364 6.62326 6.54845 6.54845C6.62326 6.47364 15.2221 6.47364 15.2969 6.54845Z" fill="white" />
    <path d="M23.1682 1.79999L14.4147 8.09999L16.0332 4.383L23.1682 1.79999Z" fill="#E2761B" stroke="#E2761B" />
    <path d="M2.95818 1.92551L11.7131 8.27241L10.1611 4.50334L2.95818 1.92551ZM20.1578 16.4995L17.807 19.9536L22.8365 21.2808L24.2823 16.5759L20.1578 16.4995ZM2.02696 16.5759L3.46391 21.2808L8.49339 19.9536L6.14266 16.4993L2.02696 16.5759Z" fill="#E4761B" stroke="#E4761B" />
    <path d="M8.20949 10.6631L6.80812 12.6965L11.8018 12.9091L11.6245 7.76193L8.20949 10.6631ZM18.082 10.6631L14.6227 7.70221L14.5073 12.9089L19.4925 12.6963L18.082 10.6631ZM8.49339 19.9536L11.4914 18.5498L8.90127 16.6101L8.49339 19.9536ZM14.8001 18.5498L17.807 19.9536L17.3902 16.6101L14.8001 18.5498Z" fill="#E4761B" stroke="#E4761B" />
    <path d="M17.7773 19.995L14.7896 18.6344L15.0277 20.4569L15.0012 21.2237L17.7773 19.995ZM8.52334 19.995L11.2994 21.2237L11.2818 20.4567L11.5022 18.6344L8.52334 19.995Z" fill="#D7C1B3" stroke="#D7C1B3" />
    <path d="M11.0092 15.3L8.47482 14.5845L10.2634 13.8L11.0092 15.3ZM14.6849 15.3L15.4309 13.8L17.2283 14.5845L14.6849 15.3Z" fill="#233447" stroke="#233447" />
    <path d="M8.36702 19.9721L8.78997 16.5117L6.03136 16.5884L8.36702 19.9721ZM17.198 16.5119L17.621 19.9721L19.9566 16.5884L17.198 16.5119ZM19.2956 12.702L14.3424 12.915L14.8007 15.3785L15.5322 13.8954L17.2949 14.671L19.2956 12.702ZM8.70177 14.6709L10.4646 13.8952L11.1871 15.3783L11.6543 12.915L6.69256 12.702L8.70177 14.6709Z" fill="#CD6116" stroke="#CD6116" />
    <path d="M6.77671 12.701L8.85858 16.5836L8.78817 14.6508L6.77671 12.701ZM17.3893 14.6508L17.3009 16.5836L19.3918 12.701L17.3893 14.6508ZM11.7433 12.9119L11.2757 15.3514L11.8581 18.2295L11.9904 14.4399L11.7433 12.9119ZM14.4341 12.9119L14.1958 14.4313L14.3016 18.2295L14.8926 15.3514L14.4341 12.9119Z" fill="#E4751F" stroke="#E4751F" />
    <path d="M14.6877 15.4083L14.0861 18.3185L14.5172 18.6L17.1386 16.6543L17.2283 14.7L14.6877 15.4083ZM8.47482 14.7L8.54666 16.6543L11.1685 18.6L11.5993 18.3185L11.0066 15.4083L8.47482 14.7Z" fill="#F6851B" stroke="#F6851B" />
    <path d="M14.7274 21.3771L14.7541 20.5799L14.5309 20.3913H11.1633L10.9578 20.5799L10.9757 21.3771L8.16219 20.1L9.1447 20.8714L11.1366 22.2H14.5576L16.5584 20.8714L17.5409 20.1L14.7274 21.3771Z" fill="#C0AD9E" stroke="#C0AD9E" />
    <path d="M14.4891 18.5727L14.0653 18.3H11.6203L11.1966 18.5727L10.9758 20.4L11.1789 20.2179H14.5068L14.7273 20.3998L14.4891 18.5727Z" fill="#161616" stroke="#161616" />
    <path d="M23.5263 8.57312L24.2785 5.12638L23.1544 1.92462L14.6402 7.95645L17.9149 10.6007L22.5439 11.8931L23.5705 10.7528L23.128 10.4485L23.8362 9.83187L23.2874 9.42646L23.9954 8.9111L23.5263 8.57312ZM1.70937 5.12638L2.46158 8.57312L1.98359 8.9111L2.69179 9.42629L2.15186 9.83187L2.85987 10.4485L2.41739 10.7528L3.4353 11.8931L8.0641 10.6007L11.3388 7.95645L2.82437 1.92462L1.70937 5.12638Z" fill="#763D16" stroke="#763D16" />
    <path d="M22.5492 11.9799L17.9223 10.675L19.329 12.7135L17.2322 16.6368L19.9924 16.6026H24.106L22.5492 11.9799ZM8.07587 10.675L3.44893 11.9799L1.9097 16.6026H6.01451L8.76583 16.6368L6.67803 12.7135L8.07587 10.675ZM14.3572 12.9266L14.649 8.00546L15.9936 4.5H10.0221L11.3491 8.00546L11.6587 12.9266L11.765 14.479L11.7739 18.3H14.2243L14.242 14.479L14.3572 12.9266Z" fill="#F6851B" stroke="#F6851B" />
</svg>
        