<svg width="16" height="22" viewBox="0 0 16 22" fill="none" xmlns="http://www.w3.org/2000/svg">
    <path d="M7.95953 0.199997C4.9103 0.199997 2.44261 2.598 2.44261 5.56113V7.57043C1.37184 7.7588 0.297997 8.00996 0.297997 8.33588V18.8219C0.297997 18.8219 0.297997 19.112 0.633381 19.2495C1.84877 19.7279 6.6303 21.3724 7.72876 21.7492C7.8703 21.8 7.9103 21.8 7.94723 21.8C7.99953 21.8 8.02415 21.8 8.16569 21.7492C9.26415 21.3724 14.058 19.7279 15.2734 19.2495C15.5841 19.1239 15.5965 18.8339 15.5965 18.8339V8.33588C15.5965 8.00996 14.538 7.74684 13.4641 7.57043V5.56113C13.4795 2.598 10.9965 0.199997 7.95953 0.199997ZM7.95953 2.76245C9.75646 2.76245 10.8426 3.81794 10.8426 5.56412V7.3103C8.82722 7.17275 7.10722 7.17275 5.07953 7.3103V5.56412C5.07953 3.81495 6.16569 2.76245 7.95953 2.76245ZM7.94723 9.88172C10.4549 9.88172 12.5595 10.0701 12.5595 10.408V16.9502C12.5595 17.0518 12.5472 17.0638 12.4549 17.0997C12.3657 17.1385 8.17799 18.6066 8.17799 18.6066C8.17799 18.6066 8.00876 18.6575 7.95953 18.6575C7.90723 18.6575 7.74107 18.5947 7.74107 18.5947C7.74107 18.5947 3.55338 17.1266 3.46415 17.0877C3.37492 17.0488 3.35953 17.0369 3.35953 16.9382V10.396C3.33492 10.0581 5.43953 9.88172 7.94723 9.88172Z" fill="url(#paint0_linear_287_955)" />
    <defs>
        <linearGradient id="paint0_linear_287_955" x1="0.715227" y1="21.8" x2="19.2919" y2="17.9276" gradientUnits="userSpaceOnUse">
            <stop stop-color="#85FFC4" />
            <stop offset="0.902469" stop-color="#5CC6FF" />
        </linearGradient>
    </defs>
</svg>
    