<svg width="26" height="16" viewBox="0 0 26 16" fill="none" xmlns="http://www.w3.org/2000/svg">
    <path d="M5.72287 3.37401C9.74634 -0.458005 16.2697 -0.458005 20.2932 3.37401L20.7774 3.8352C20.9786 4.02681 20.9786 4.33745 20.7774 4.52905L19.1209 6.10669C19.0203 6.20249 18.8573 6.20249 18.7567 6.10669L18.0903 5.47204C15.2834 2.79873 10.7326 2.79873 7.92571 5.47204L7.2121 6.1517C7.11151 6.2475 6.94843 6.2475 6.84784 6.1517L5.19138 4.57406C4.99021 4.38246 4.99021 4.07181 5.19138 3.88021L5.72287 3.37401ZM23.7189 6.63674L25.1931 8.04084C25.3943 8.23244 25.3943 8.54309 25.1931 8.73469L18.5456 15.066C18.3444 15.2576 18.0183 15.2576 17.8171 15.066C17.8171 15.066 17.8171 15.066 17.8171 15.066L13.0991 10.5725C13.0488 10.5246 12.9673 10.5246 12.917 10.5725C12.917 10.5725 12.917 10.5725 12.917 10.5725L8.19908 15.066C7.99791 15.2576 7.67174 15.2576 7.47057 15.066C7.47057 15.066 7.47057 15.066 7.47057 15.066L0.822877 8.73461C0.621704 8.54301 0.621704 8.23236 0.822877 8.04076L2.29713 6.63666C2.49831 6.44506 2.82447 6.44506 3.02565 6.63666L7.74371 11.1302C7.794 11.1781 7.87554 11.1781 7.92584 11.1302C7.92584 11.1302 7.92584 11.1302 7.92584 11.1302L12.6437 6.63666C12.8448 6.44505 13.171 6.44504 13.3722 6.63664C13.3722 6.63664 13.3722 6.63665 13.3722 6.63665L18.0902 11.1302C18.1405 11.1781 18.2221 11.1781 18.2724 11.1302L22.9904 6.63674C23.1915 6.44514 23.5177 6.44514 23.7189 6.63674Z" fill="url(#paint0_linear_287_965)" />
    <defs>
        <linearGradient id="paint0_linear_287_965" x1="1.34487" y1="15.2097" x2="26.4802" y2="2.80154" gradientUnits="userSpaceOnUse">
            <stop stop-color="#85FFC4" />
            <stop offset="0.902469" stop-color="#5CC6FF" />
        </linearGradient>
    </defs>
</svg>
    