<svg width="16" height="16" viewBox="0 0 16 16" fill="none" xmlns="http://www.w3.org/2000/svg">
    <g clip-path="url(#clip0_261_1416)">
        <path fill-rule="evenodd" clip-rule="evenodd" d="M13.0001 5.99997L13.7501 6.74997C14.1643 7.16418 14.8359 7.16418 15.2501 6.74997C15.6643 6.33576 15.6643 5.66419 15.2501 5.24997L12.7072 2.70708C12.3167 2.31655 11.6835 2.31655 11.293 2.70708L8.75013 5.24997C8.33592 5.66419 8.33592 6.33576 8.75013 6.74997C9.16434 7.16419 9.83592 7.16419 10.2501 6.74997L11.0001 5.99997L11.0001 13C11.0001 13.5523 11.4478 14 12.0001 14C12.5524 14 13.0001 13.5523 13.0001 13L13.0001 5.99997Z" fill="#828295" />
        <path fill-rule="evenodd" clip-rule="evenodd" d="M5.43946 10.4142L6.18946 9.66421C6.60368 9.25 7.27525 9.25 7.68946 9.66421C8.10368 10.0784 8.10368 10.75 7.68946 11.1642L5.14657 13.7071C4.75604 14.0976 4.12288 14.0976 3.73236 13.7071L1.18946 11.1642C0.775249 10.75 0.775249 10.0784 1.18946 9.66421C1.60368 9.25 2.27525 9.25 2.68946 9.66421L3.43946 10.4142L3.43946 3.41421C3.43946 2.86192 3.88718 2.41421 4.43946 2.41421C4.99175 2.41421 5.43946 2.86193 5.43946 3.41421L5.43946 10.4142Z" fill="#828295" />
    </g>
    <defs>
        <clipPath id="clip0_261_1416">
            <rect width="16" height="16" fill="white" transform="translate(16.0001) rotate(90)" />
        </clipPath>
    </defs>
</svg>
    