<svg width="14" height="14" viewBox="0 0 14 14" fill="none" xmlns="http://www.w3.org/2000/svg">
    <path fill-rule="evenodd" clip-rule="evenodd" d="M13.2761 0.723868C13.7968 1.24457 13.7968 2.08879 13.2761 2.60949L2.60947 13.2762C2.08877 13.7969 1.24455 13.7969 0.723853 13.2762C0.203153 12.7555 0.203153 11.9112 0.723853 11.3905L11.3905 0.723868C11.9112 0.203169 12.7554 0.203169 13.2761 0.723868Z" fill="white" />
    <path fill-rule="evenodd" clip-rule="evenodd" d="M0.723853 0.723868C1.24455 0.203169 2.08877 0.203169 2.60947 0.723868L13.2761 11.3905C13.7968 11.9112 13.7968 12.7555 13.2761 13.2762C12.7554 13.7969 11.9112 13.7969 11.3905 13.2762L0.723853 2.60949C0.203153 2.08879 0.203153 1.24457 0.723853 0.723868Z" fill="white" />
</svg>
    