<svg width="19" height="18" viewBox="0 0 19 18" fill="none" xmlns="http://www.w3.org/2000/svg">
    <path fill-rule="evenodd" clip-rule="evenodd" d="M9.50011 12.2741C7.69263 12.2741 6.22738 10.8088 6.22738 9.00125C6.22738 7.19369 7.69263 5.72837 9.50011 5.72837C11.3076 5.72837 12.7728 7.19369 12.7728 9.00125C12.7728 10.8088 11.3076 12.2741 9.50011 12.2741ZM11.1365 9.00125C11.1365 9.90503 10.4039 10.6377 9.50013 10.6377C8.5964 10.6377 7.86377 9.90503 7.86377 9.00125C7.86377 8.09747 8.5964 7.36481 9.50013 7.36481C10.4039 7.36481 11.1365 8.09747 11.1365 9.00125Z" fill="white" />
    <path fill-rule="evenodd" clip-rule="evenodd" d="M14.5242 16.1626C14.7848 16.2352 15.0644 16.1618 15.2558 15.9704L16.4515 14.7746C16.6423 14.5838 16.7159 14.3053 16.6443 14.0452L16.19 12.3946C16.1454 12.2328 16.1565 12.0607 16.2213 11.9059L16.3003 11.7172C16.3646 11.5635 16.4784 11.4356 16.6235 11.3537L18.1187 10.5099C18.3544 10.3769 18.5001 10.1273 18.5001 9.85671V8.16574C18.5001 7.89594 18.3552 7.64692 18.1207 7.51363L16.6299 6.66651C16.4845 6.58387 16.3709 6.455 16.3071 6.30037L16.2303 6.11397C16.1665 5.95935 16.1562 5.78785 16.2011 5.62673L16.6612 3.97527C16.7338 3.7144 16.6602 3.43461 16.4686 3.24326L15.272 2.04831C15.0812 1.85784 14.803 1.78438 14.5431 1.85589L12.8921 2.31018C12.7302 2.35474 12.558 2.34366 12.4031 2.27872L12.2158 2.20019C12.0623 2.13579 11.9345 2.02212 11.8526 1.87708L11.0087 0.381445C10.8758 0.145768 10.6262 0 10.3556 0H8.66466C8.39487 0 8.14587 0.144908 8.01258 0.379481L7.1655 1.87026C7.08287 2.01569 6.954 2.12932 6.79937 2.19309L6.61328 2.26984C6.45858 2.33365 6.28699 2.34388 6.1258 2.29891L4.47469 1.8383C4.21395 1.76556 3.93425 1.83897 3.74283 2.03039L2.54872 3.22457C2.35797 3.41532 2.28436 3.69381 2.35592 3.9539L2.8102 5.60498C2.85475 5.7669 2.84367 5.93909 2.77874 6.09397L2.70021 6.28128C2.63582 6.43486 2.52215 6.56264 2.37712 6.64448L0.881549 7.48842C0.645884 7.6214 0.500122 7.87103 0.500122 8.14163V9.83255C0.500122 10.102 0.64464 10.3507 0.878711 10.4842L2.36907 11.3337C2.51408 11.4164 2.62737 11.5451 2.69101 11.6994L2.76833 11.8869C2.83209 12.0415 2.84235 12.213 2.79747 12.3741L2.33745 14.0255C2.26483 14.2862 2.33826 14.5658 2.52961 14.7572L3.72454 15.9521C3.91528 16.1429 4.19376 16.2165 4.45384 16.1449L6.10484 15.6906C6.26676 15.6461 6.43894 15.6572 6.59382 15.7221L6.78126 15.8007C6.93479 15.8651 7.06254 15.9787 7.14438 16.1237L7.98827 17.6187C8.12127 17.8543 8.37084 18 8.64139 18H10.3322C10.6017 18 10.8505 17.8554 10.9839 17.6212L11.8326 16.1311C11.9153 15.986 12.044 15.8726 12.1984 15.8089L12.3856 15.7317C12.5402 15.6679 12.7117 15.6577 12.8728 15.7025L14.5242 16.1626ZM15.3308 10.205C15.1857 10.2869 15.0719 10.4148 15.0076 10.5685L14.4936 11.796C14.4288 11.9509 14.4178 12.1229 14.4623 12.2848L14.8426 13.6665C14.8965 13.8622 14.8411 14.0717 14.6977 14.2151C14.5537 14.3591 14.3434 14.4143 14.1474 14.3597L12.7695 13.9758C12.6084 13.931 12.4369 13.9412 12.2823 14.005L11.0548 14.5113C10.9004 14.5749 10.7717 14.6883 10.689 14.8334L9.97957 16.0791C9.8791 16.2555 9.69171 16.3644 9.48871 16.3644C9.28493 16.3644 9.09694 16.2546 8.99677 16.0772L8.29392 14.8321C8.21208 14.6871 8.08433 14.5734 7.93081 14.5091L6.70501 13.9951C6.55014 13.9301 6.37796 13.9191 6.21604 13.9636L4.83293 14.3442C4.63762 14.3979 4.42851 14.3427 4.28527 14.1994C4.14159 14.0557 4.08644 13.8458 4.14097 13.65L4.52495 12.2716C4.56983 12.1105 4.55957 11.939 4.49581 11.7844L3.98956 10.5568C3.92592 10.4025 3.81262 10.2738 3.66762 10.1911L2.42173 9.48093C2.24539 9.38041 2.13651 9.19302 2.13651 8.99003C2.13651 8.78617 2.24632 8.59811 2.42386 8.49792L3.66948 7.79503C3.81451 7.71319 3.92818 7.58541 3.99257 7.43183L4.50653 6.20598C4.57147 6.0511 4.58255 5.8789 4.53799 5.71698L4.15723 4.33308C4.10361 4.13822 4.15876 3.92957 4.30167 3.78665C4.44508 3.64324 4.65464 3.58823 4.84999 3.64273L6.22884 4.0274C6.39003 4.07236 6.56162 4.06213 6.71632 3.99833L7.9439 3.49203C8.09852 3.42825 8.22739 3.31462 8.31002 3.1692L9.01835 1.92261C9.11857 1.74623 9.30581 1.63726 9.50867 1.63726C9.71214 1.63726 9.89984 1.74687 9.99983 1.92409L10.703 3.1703C10.7848 3.31534 10.9126 3.42901 11.0662 3.49341L12.292 4.00739C12.4468 4.07233 12.619 4.08341 12.781 4.03886L14.1641 3.65825C14.3597 3.60445 14.569 3.65971 14.7125 3.803C14.8566 3.94694 14.912 4.15742 14.8573 4.35367L14.4737 5.73088C14.4288 5.892 14.4391 6.0635 14.5028 6.21812L15.0091 7.44574C15.0729 7.60037 15.1865 7.72925 15.3319 7.81188L16.5785 8.52024C16.7548 8.62047 16.8638 8.80771 16.8638 9.01059C16.8638 9.21407 16.7542 9.40177 16.577 9.50177L15.3308 10.205Z" fill="white" />
</svg>
    