<svg width="31" height="31" viewBox="0 0 28 28" fill="none" xmlns="http://www.w3.org/2000/svg">
    <g filter="url(#filter0_d_322_2963)">
        <mask id="mask0_322_2963" style="mask-type:alpha" maskUnits="userSpaceOnUse" x="4" y="0" width="24" height="23">
            <circle cx="15.501" cy="11.5" r="11.5" fill="url(#paint0_linear_322_2963)" />
        </mask>
        <g mask="url(#mask0_322_2963)">
            <circle cx="15.501" cy="11.5" r="11.5" fill="#31D8A4" />
            <circle cx="15.5008" cy="11.5" r="9.96667" fill="white" />
        </g>
        <ellipse cx="15.5009" cy="11.5" rx="8.81667" ry="8.81667" fill="#0E052F" />
        <g clip-path="url(#clip0_322_2963)">
            <path d="M15.501 20.3167C20.3703 20.3167 24.3176 16.3693 24.3176 11.5C24.3176 6.63071 20.3703 2.68335 15.501 2.68335C10.6317 2.68335 6.68431 6.63071 6.68431 11.5C6.68431 16.3693 10.6317 20.3167 15.501 20.3167Z" fill="#627EEA" />
            <path d="M15.7755 4.88757V9.77531L19.9066 11.6213L15.7755 4.88757Z" fill="white" fill-opacity="0.602" />
            <path d="M15.7754 4.88757L11.6437 11.6213L15.7754 9.77531V4.88757Z" fill="white" />
            <path d="M15.7755 14.7886V18.1098L19.9094 12.3905L15.7755 14.7886Z" fill="white" fill-opacity="0.602" />
            <path d="M15.7754 18.1098V14.7881L11.6437 12.3905L15.7754 18.1098Z" fill="white" />
            <path d="M15.7755 14.0201L19.9066 11.6214L15.7755 9.77649V14.0201Z" fill="white" fill-opacity="0.2" />
            <path d="M11.6437 11.6214L15.7754 14.0201V9.77649L11.6437 11.6214Z" fill="white" fill-opacity="0.602" />
        </g>
    </g>
    <defs>
        <filter id="filter0_d_322_2963" x="0.000976562" y="0" width="31" height="31" filterUnits="userSpaceOnUse" color-interpolation-filters="sRGB">
            <feFlood flood-opacity="0" result="BackgroundImageFix" />
            <feColorMatrix in="SourceAlpha" type="matrix" values="0 0 0 0 0 0 0 0 0 0 0 0 0 0 0 0 0 0 127 0" result="hardAlpha" />
            <feOffset dy="4" />
            <feGaussianBlur stdDeviation="2" />
            <feComposite in2="hardAlpha" operator="out" />
            <feColorMatrix type="matrix" values="0 0 0 0 0 0 0 0 0 0 0 0 0 0 0 0 0 0 0.25 0" />
            <feBlend mode="normal" in2="BackgroundImageFix" result="effect1_dropShadow_322_2963" />
            <feBlend mode="normal" in="SourceGraphic" in2="effect1_dropShadow_322_2963" result="shape" />
        </filter>
        <linearGradient id="paint0_linear_322_2963" x1="15.501" y1="0" x2="15.501" y2="33.6288" gradientUnits="userSpaceOnUse">
            <stop stop-color="#08021E" />
            <stop offset="1" stop-color="#1F0777" />
        </linearGradient>
        <clipPath id="clip0_322_2963">
            <rect width="17.6333" height="17.6333" fill="white" transform="translate(6.68431 2.68335)" />
        </clipPath>
    </defs>
</svg>
    